STARTFONT 2.1
COMMENT
COMMENT Converted from OpenType font "Q:\font stuff\winfont\Ambiance BT Coalesce.ttf" by "otf2bdf 3.0".
COMMENT
FONT -FreeType-Ambiance BT-Medium-R-Normal--24-240-72-72-P-131-ISO10646-1
SIZE 24 72 72
FONTBOUNDINGBOX 40 33 -10 -12
STARTPROPERTIES 19
FOUNDRY "FreeType"
FAMILY_NAME "Ambiance BT"
WEIGHT_NAME "Medium"
SLANT "R"
SETWIDTH_NAME "Normal"
ADD_STYLE_NAME ""
PIXEL_SIZE 24
POINT_SIZE 240
RESOLUTION_X 72
RESOLUTION_Y 72
SPACING "P"
AVERAGE_WIDTH 131
CHARSET_REGISTRY "ISO10646"
CHARSET_ENCODING "1"
FONT_ASCENT 0
FONT_DESCENT 0
COPYRIGHT "Copyright 1990-2003 as an unpublished work by Bitstream Inc.  All rights reserved.  Confidential."
_OTF_FONTFILE "Q:\font stuff\winfont\Ambiance BT Coalesce.ttf"
_OTF_PSNAME "AmbianceBTCoalesce-Regular"
ENDPROPERTIES
CHARS 225
STARTCHAR 0020
ENCODING 32
SWIDTH 333 0
DWIDTH 8 0
BBX 0 0 0 0
BITMAP
ENDCHAR
STARTCHAR 0021
ENCODING 33
SWIDTH 208 0
DWIDTH 5 0
BBX 9 16 0 0
BITMAP
0080
0100
0200
0600
0400
0800
1000
1000
2000
2000
4000
4000
0000
0000
4000
8000
ENDCHAR
STARTCHAR 0022
ENCODING 34
SWIDTH 208 0
DWIDTH 5 0
BBX 5 4 1 7
BITMAP
D8
D8
48
48
ENDCHAR
STARTCHAR 0023
ENCODING 35
SWIDTH 750 0
DWIDTH 18 0
BBX 19 13 1 4
BITMAP
003000
006300
004200
03FFE0
3D8000
211800
022000
02FF80
1D2000
E44000
044000
044000
044000
ENDCHAR
STARTCHAR 0024
ENCODING 36
SWIDTH 291 0
DWIDTH 7 0
BBX 8 17 1 2
BITMAP
01
02
02
0F
18
10
10
10
08
08
88
98
70
40
40
40
40
ENDCHAR
STARTCHAR 0025
ENCODING 37
SWIDTH 583 0
DWIDTH 14 0
BBX 18 21 -2 -4
BITMAP
003F00
0040C0
0040C0
014180
024200
048400
048800
091000
0A2000
0C4000
008000
011C00
023400
046400
082800
104800
109000
20B000
40C000
400000
800000
ENDCHAR
STARTCHAR 0026
ENCODING 38
SWIDTH 750 0
DWIDTH 18 0
BBX 17 22 0 -6
BITMAP
000600
000A00
000C00
001000
007000
009000
032000
042F80
183080
30E080
612100
424200
C24400
C04800
E0B000
3FC000
008000
018000
010000
030000
060000
1C0000
ENDCHAR
STARTCHAR 0027
ENCODING 39
SWIDTH 83 0
DWIDTH 2 0
BBX 2 4 1 7
BITMAP
C0
C0
40
80
ENDCHAR
STARTCHAR 0028
ENCODING 40
SWIDTH 375 0
DWIDTH 9 0
BBX 13 17 1 -2
BITMAP
0038
00C0
0300
0400
0800
1000
2000
6000
4000
4000
8000
8000
8000
8000
8000
C000
6000
ENDCHAR
STARTCHAR 0029
ENCODING 41
SWIDTH 375 0
DWIDTH 9 0
BBX 11 18 -3 -2
BITMAP
0180
0040
0020
0020
0020
0020
0020
0020
0040
0040
0080
0080
0100
0200
0400
0800
3000
C000
ENDCHAR
STARTCHAR 002A
ENCODING 42
SWIDTH 375 0
DWIDTH 9 0
BBX 7 7 2 6
BITMAP
10
54
38
FE
38
54
10
ENDCHAR
STARTCHAR 002B
ENCODING 43
SWIDTH 458 0
DWIDTH 11 0
BBX 9 9 1 0
BITMAP
0800
0800
0800
0800
FF80
0800
0800
0800
0800
ENDCHAR
STARTCHAR 002C
ENCODING 44
SWIDTH 166 0
DWIDTH 4 0
BBX 2 4 -1 -3
BITMAP
40
40
40
80
ENDCHAR
STARTCHAR 002D
ENCODING 45
SWIDTH 291 0
DWIDTH 7 0
BBX 5 1 1 3
BITMAP
F8
ENDCHAR
STARTCHAR 002E
ENCODING 46
SWIDTH 166 0
DWIDTH 4 0
BBX 2 2 0 0
BITMAP
40
80
ENDCHAR
STARTCHAR 002F
ENCODING 47
SWIDTH 458 0
DWIDTH 11 0
BBX 17 20 0 -2
BITMAP
000080
000300
000600
000800
001000
002000
004000
008000
010000
020000
040000
080000
080000
100000
200000
400000
400000
800000
800000
800000
ENDCHAR
STARTCHAR 0030
ENCODING 48
SWIDTH 583 0
DWIDTH 14 0
BBX 13 14 1 -2
BITMAP
07C0
3B30
4C10
5008
A008
C008
C008
8018
8010
8030
8060
80C0
4380
3E00
ENDCHAR
STARTCHAR 0031
ENCODING 49
SWIDTH 375 0
DWIDTH 9 0
BBX 10 14 -1 -2
BITMAP
0040
00C0
0180
0700
0200
0200
0400
0800
0800
1000
1000
1E00
7000
8000
ENDCHAR
STARTCHAR 0032
ENCODING 50
SWIDTH 625 0
DWIDTH 15 0
BBX 15 14 -1 -2
BITMAP
0078
0084
0304
0404
0408
0010
0020
0040
0180
0600
F818
E806
0782
007C
ENDCHAR
STARTCHAR 0033
ENCODING 51
SWIDTH 666 0
DWIDTH 16 0
BBX 16 14 -1 -2
BITMAP
001E
00E3
0001
0002
000C
00F0
000C
0002
0002
7802
8704
80CC
4070
3F80
ENDCHAR
STARTCHAR 0034
ENCODING 52
SWIDTH 708 0
DWIDTH 17 0
BBX 16 15 0 -2
BITMAP
0004
0008
0010
0060
00A0
0142
0681
F883
0FFE
0100
0100
0200
0200
0200
0100
ENDCHAR
STARTCHAR 0035
ENCODING 53
SWIDTH 666 0
DWIDTH 16 0
BBX 19 15 -2 -2
BITMAP
03C020
043820
0047C0
008000
008000
011E00
016300
008100
000100
000200
1F0600
600C00
803000
C1E000
3F0000
ENDCHAR
STARTCHAR 0036
ENCODING 54
SWIDTH 541 0
DWIDTH 13 0
BBX 12 16 0 -5
BITMAP
0060
0180
0200
0C00
1000
2000
21E0
4210
8C10
9020
A060
C180
7E00
4000
4000
2000
ENDCHAR
STARTCHAR 0037
ENCODING 55
SWIDTH 458 0
DWIDTH 11 0
BBX 12 14 0 -2
BITMAP
7E00
83F0
6040
0080
0300
0400
0800
0800
1000
2000
2000
4000
4000
4000
ENDCHAR
STARTCHAR 0038
ENCODING 56
SWIDTH 583 0
DWIDTH 14 0
BBX 23 17 -1 -2
BITMAP
000006
000038
0000C0
007D00
01CF00
031100
022000
02C000
038000
044000
084000
102000
202000
406000
80C000
838000
7C0000
ENDCHAR
STARTCHAR 0039
ENCODING 57
SWIDTH 541 0
DWIDTH 13 0
BBX 15 16 1 -4
BITMAP
00FC
0702
1820
2040
4080
8180
8300
8E00
7400
0400
0800
0800
1000
1000
1000
1000
ENDCHAR
STARTCHAR 003A
ENCODING 58
SWIDTH 166 0
DWIDTH 4 0
BBX 4 5 -1 0
BITMAP
10
20
00
40
80
ENDCHAR
STARTCHAR 003B
ENCODING 59
SWIDTH 166 0
DWIDTH 4 0
BBX 4 8 -1 -4
BITMAP
10
20
00
00
40
40
40
80
ENDCHAR
STARTCHAR 003C
ENCODING 60
SWIDTH 458 0
DWIDTH 11 0
BBX 5 7 3 1
BITMAP
08
10
20
40
C0
30
08
ENDCHAR
STARTCHAR 003D
ENCODING 61
SWIDTH 458 0
DWIDTH 11 0
BBX 7 3 2 3
BITMAP
FE
00
FE
ENDCHAR
STARTCHAR 003E
ENCODING 62
SWIDTH 458 0
DWIDTH 11 0
BBX 5 7 3 1
BITMAP
80
60
18
10
20
40
80
ENDCHAR
STARTCHAR 003F
ENCODING 63
SWIDTH 625 0
DWIDTH 15 0
BBX 16 18 1 0
BITMAP
03F0
0C0C
3002
4001
8001
8603
F806
0018
00E0
0380
0C00
3000
4000
8000
4000
0000
4000
8000
ENDCHAR
STARTCHAR 0040
ENCODING 64
SWIDTH 916 0
DWIDTH 22 0
BBX 20 16 1 1
BITMAP
003E00
00E1E0
0300B0
060090
081C90
106890
20D990
41B120
415320
82A640
852C80
863100
800200
C00C00
607000
1F8000
ENDCHAR
STARTCHAR 0041
ENCODING 65
SWIDTH 875 0
DWIDTH 21 0
BBX 26 19 -3 -3
BITMAP
0001FC00
000603C0
00180080
00100080
00100300
000C0500
00000A00
00001200
00001200
001FF400
01E04E00
06008800
18010800
30021000
60041000
C0081000
80301000
81C00800
7E000000
ENDCHAR
STARTCHAR 0042
ENCODING 66
SWIDTH 916 0
DWIDTH 22 0
BBX 22 20 1 -3
BITMAP
003FC0
03C070
0E0018
18010C
200204
400404
C00804
800808
801010
802020
8020C0
804300
408700
4080C0
210020
120020
3F0020
44E0C0
8A1F00
700000
ENDCHAR
STARTCHAR 0043
ENCODING 67
SWIDTH 833 0
DWIDTH 20 0
BBX 19 18 1 -2
BITMAP
001F00
1F6380
71B0C0
C60E60
8801A0
900060
600000
380000
200000
400000
400000
400000
400040
400080
400100
200600
103800
0FC000
ENDCHAR
STARTCHAR 0044
ENCODING 68
SWIDTH 1041 0
DWIDTH 25 0
BBX 24 18 0 0
BITMAP
000040
0FE080
301F00
400180
400260
400410
40040C
200804
181002
071001
002001
004001
004001
008003
010002
FA0004
87C038
787FC0
ENDCHAR
STARTCHAR 0045
ENCODING 69
SWIDTH 916 0
DWIDTH 22 0
BBX 22 20 1 -3
BITMAP
1F0000
60E000
403800
800700
8001E0
80023C
800400
800800
400800
401000
20FF00
232080
102000
084000
004000
FC8000
030000
82E000
7C1E08
0001F0
ENDCHAR
STARTCHAR 0046
ENCODING 70
SWIDTH 1041 0
DWIDTH 25 0
BBX 29 20 1 -4
BITMAP
007C0000
03838000
1C007000
20000E00
400005C0
40000838
80000800
80000800
8007FC00
803E0000
80E01000
41802000
43002000
22004000
24008000
14018000
0C010000
04060000
02080000
01F00000
ENDCHAR
STARTCHAR 0047
ENCODING 71
SWIDTH 791 0
DWIDTH 19 0
BBX 23 26 -3 -10
BITMAP
0000FC
000702
001802
002000
00C000
010000
02000C
0200F0
040720
041860
0860C0
098140
0A0240
0C0C80
1C3880
13C100
200100
600200
400200
800400
800800
800800
801000
C02000
60C000
3F0000
ENDCHAR
STARTCHAR 0048
ENCODING 72
SWIDTH 916 0
DWIDTH 22 0
BBX 29 22 -2 -2
BITMAP
00000008
00000010
00000020
00004040
0007C040
00F8C080
03008100
04008100
08018200
08010200
08030400
08020600
05FFF800
06040800
1A080800
22080800
40101000
80201000
80201000
80C01000
C1000000
7E000000
ENDCHAR
STARTCHAR 0049
ENCODING 73
SWIDTH 666 0
DWIDTH 16 0
BBX 20 18 -2 -1
BITMAP
0007F0
007840
018040
020080
040080
040100
040100
040100
040200
027FC0
078400
180400
600800
801000
802000
804000
C18000
7E0000
ENDCHAR
STARTCHAR 004A
ENCODING 74
SWIDTH 666 0
DWIDTH 16 0
BBX 23 23 -5 -7
BITMAP
000006
0000FE
000704
001808
002008
004008
004010
002010
000020
000020
000040
001FE0
03E040
0E0080
180100
200100
400200
800400
800800
801000
802000
60C000
3F0000
ENDCHAR
STARTCHAR 004B
ENCODING 75
SWIDTH 958 0
DWIDTH 23 0
BBX 29 20 -2 -1
BITMAP
00000008
00000010
003FE010
01C02020
02004040
04004080
08008100
08008600
0800B800
0C054000
041E0000
07E60000
19050200
20090200
40108100
80104100
80602300
80801E00
C1000000
3E000000
ENDCHAR
STARTCHAR 004C
ENCODING 76
SWIDTH 791 0
DWIDTH 19 0
BBX 21 19 -1 -3
BITMAP
000060
000090
000190
000110
000220
000620
000440
000480
000800
000800
001000
001000
002000
002000
7C4000
838000
417008
3E0F08
0001F0
ENDCHAR
STARTCHAR 004D
ENCODING 77
SWIDTH 833 0
DWIDTH 20 0
BBX 26 22 -5 -5
BITMAP
07F40000
380E0000
40043800
80084800
80088840
00111880
00121080
00243700
00282900
00505200
00506200
00A0C400
00408400
00810400
03800800
01000800
02000800
04000800
00000900
00000900
00000500
00000200
ENDCHAR
STARTCHAR 004E
ENCODING 78
SWIDTH 791 0
DWIDTH 19 0
BBX 20 25 1 -6
BITMAP
0E0000
110000
210000
408070
C08090
808110
808230
808420
808840
809040
80A080
414180
218100
010200
030200
050400
0A0400
120800
140800
241000
481000
701100
001200
001200
000C00
ENDCHAR
STARTCHAR 004F
ENCODING 79
SWIDTH 791 0
DWIDTH 19 0
BBX 18 20 1 -3
BITMAP
00FE00
030300
0C0180
1000C0
200040
418040
420040
840040
880040
900080
900080
A00100
600100
600200
200400
300400
280800
363000
19C000
0FA000
ENDCHAR
STARTCHAR 0050
ENCODING 80
SWIDTH 750 0
DWIDTH 18 0
BBX 18 19 1 -2
BITMAP
03E000
1C1E00
601300
801080
802080
402040
204040
184040
008080
008700
07F800
010000
010000
020000
020000
040000
1FC000
680000
700000
ENDCHAR
STARTCHAR 0051
ENCODING 81
SWIDTH 791 0
DWIDTH 19 0
BBX 18 26 1 -9
BITMAP
000800
03FC00
0C8700
110180
260080
4800C0
500040
A00040
C00040
C00040
800080
800080
800100
C00200
C00200
A00400
A00800
503000
38C000
1F0000
040200
020200
010100
00C100
002300
001E00
ENDCHAR
STARTCHAR 0052
ENCODING 82
SWIDTH 916 0
DWIDTH 22 0
BBX 21 20 1 -3
BITMAP
007E00
0381C0
0E01B0
180688
200808
400808
C01008
801010
806020
8020C0
804300
806C00
40A000
409020
210820
110C10
0A0410
060330
0C00E0
780000
ENDCHAR
STARTCHAR 0053
ENCODING 83
SWIDTH 666 0
DWIDTH 16 0
BBX 19 20 -2 -4
BITMAP
000F80
003860
006020
004820
0047C0
004000
002000
001000
03C800
042600
181100
101080
301080
202080
202080
20C180
A30300
7C0600
181C00
07E000
ENDCHAR
STARTCHAR 0054
ENCODING 84
SWIDTH 958 0
DWIDTH 23 0
BBX 30 20 -3 -4
BITMAP
01FE0000
0601C000
18003800
20000600
400003C8
C000023C
80000400
80000400
80000400
80000800
80000800
40001000
40001000
20802000
21004000
11008000
09010000
01020000
00840000
00780000
ENDCHAR
STARTCHAR 0055
ENCODING 85
SWIDTH 875 0
DWIDTH 21 0
BBX 21 21 1 -5
BITMAP
07F000
381E00
C00400
800408
800808
601010
001030
002020
0020E0
004060
0041C0
004240
0082C0
008480
008880
009080
00E080
000090
000090
000050
000020
ENDCHAR
STARTCHAR 0056
ENCODING 86
SWIDTH 708 0
DWIDTH 17 0
BBX 23 20 1 -2
BITMAP
3C0006
460018
820020
810040
810080
810100
808200
408400
408800
208800
109000
00A000
00A000
00C000
018000
018000
010000
030000
020000
040000
ENDCHAR
STARTCHAR 0057
ENCODING 87
SWIDTH 1166 0
DWIDTH 28 0
BBX 26 22 2 -5
BITMAP
1C000380
22000080
41000040
81000040
80800040
80800040
80810040
80830040
40850080
40870080
208A0080
10920100
00A20100
01240200
01440600
01840C00
03040800
03041000
02066000
04038000
0C000000
08000000
ENDCHAR
STARTCHAR 0058
ENCODING 88
SWIDTH 708 0
DWIDTH 17 0
BBX 26 20 -2 -3
BITMAP
000001C0
003E0600
01D00800
06301000
08206000
10208000
10210000
10220000
10240000
10280000
08300000
08200000
00E04000
01108000
02108000
04190000
080E0000
10000000
20000000
C0000000
ENDCHAR
STARTCHAR 0059
ENCODING 89
SWIDTH 875 0
DWIDTH 21 0
BBX 27 28 -4 -12
BITMAP
003F8000
01C07000
06001000
04002000
04004080
02004080
00008180
00010300
00010500
00020500
00020A00
00041200
00042200
00084200
00088400
00090400
000E0400
07FFC820
3800F820
400017C0
80001000
80002000
80004000
80008000
C0010000
60020000
381C0000
0FE00000
ENDCHAR
STARTCHAR 005A
ENCODING 90
SWIDTH 916 0
DWIDTH 22 0
BBX 28 18 -4 -2
BITMAP
000FE000
00103C30
002003F0
00200100
00000600
00000800
00003000
00004000
0001F800
000F0000
00120000
000C1E00
00180180
00600040
7EC00040
83200040
FC1F0180
0000FF00
ENDCHAR
STARTCHAR 005B
ENCODING 91
SWIDTH 416 0
DWIDTH 10 0
BBX 13 18 0 -3
BITMAP
0078
0180
0100
0200
0400
0400
0800
1000
1000
2000
2000
4000
4000
8000
8000
8000
8000
F800
ENDCHAR
STARTCHAR 005C
ENCODING 92
SWIDTH 541 0
DWIDTH 13 0
BBX 12 20 1 -3
BITMAP
8000
C000
6000
2000
1000
0800
0400
0400
0200
0100
0100
0080
0080
0040
0040
0020
0020
0020
0020
0010
ENDCHAR
STARTCHAR 005D
ENCODING 93
SWIDTH 416 0
DWIDTH 10 0
BBX 12 18 -2 -3
BITMAP
00F0
0010
0010
0010
0010
0020
0020
0020
0040
0040
0080
0080
0100
0100
0200
0600
0C00
F800
ENDCHAR
STARTCHAR 005E
ENCODING 94
SWIDTH 375 0
DWIDTH 9 0
BBX 7 3 3 9
BITMAP
10
68
86
ENDCHAR
STARTCHAR 005F
ENCODING 95
SWIDTH 791 0
DWIDTH 19 0
BBX 19 1 0 -3
BITMAP
FFFFE0
ENDCHAR
STARTCHAR 0060
ENCODING 96
SWIDTH 333 0
DWIDTH 8 0
BBX 4 3 2 9
BITMAP
80
60
10
ENDCHAR
STARTCHAR 0061
ENCODING 97
SWIDTH 333 0
DWIDTH 8 0
BBX 9 8 -1 -1
BITMAP
0380
0D80
1B00
2E00
5600
5400
A600
C000
ENDCHAR
STARTCHAR 0062
ENCODING 98
SWIDTH 291 0
DWIDTH 7 0
BBX 8 16 -1 -1
BITMAP
01
02
06
04
08
08
16
2A
32
64
44
48
90
90
60
C0
ENDCHAR
STARTCHAR 0063
ENCODING 99
SWIDTH 208 0
DWIDTH 5 0
BBX 6 7 -1 0
BITMAP
0C
14
20
40
88
B0
C0
ENDCHAR
STARTCHAR 0064
ENCODING 100
SWIDTH 333 0
DWIDTH 8 0
BBX 12 16 -1 1
BITMAP
0030
0020
0040
0040
0080
0080
0100
0100
0600
1A00
1200
2400
4C00
9400
A600
C600
ENDCHAR
STARTCHAR 0065
ENCODING 101
SWIDTH 250 0
DWIDTH 6 0
BBX 6 8 -1 0
BITMAP
0C
14
2C
58
EC
88
90
E0
ENDCHAR
STARTCHAR 0066
ENCODING 102
SWIDTH 208 0
DWIDTH 5 0
BBX 17 22 -7 -6
BITMAP
000700
000C80
001880
001080
003000
002000
002000
004000
004000
008000
01E000
008000
008000
010000
010000
010000
020000
020000
040000
840000
480000
300000
ENDCHAR
STARTCHAR 0067
ENCODING 103
SWIDTH 291 0
DWIDTH 7 0
BBX 14 17 -6 -9
BITMAP
001C
0064
00D0
01B0
0150
02A0
0520
0640
0040
0080
0080
0100
0100
0200
8400
8800
7000
ENDCHAR
STARTCHAR 0068
ENCODING 104
SWIDTH 333 0
DWIDTH 8 0
BBX 11 16 -1 -1
BITMAP
0020
00E0
0140
0140
0280
0500
0500
0A00
1400
1A00
2600
4A00
5C00
B400
6600
C600
ENDCHAR
STARTCHAR 0069
ENCODING 105
SWIDTH 125 0
DWIDTH 3 0
BBX 5 8 -1 0
BITMAP
08
10
20
40
40
80
A0
C0
ENDCHAR
STARTCHAR 006A
ENCODING 106
SWIDTH 125 0
DWIDTH 3 0
BBX 13 18 -10 -10
BITMAP
0018
0000
0010
0010
0010
0020
0020
0040
0040
0040
0080
0080
0100
0100
8200
8400
8800
7000
ENDCHAR
STARTCHAR 006B
ENCODING 107
SWIDTH 291 0
DWIDTH 7 0
BBX 8 14 -2 -2
BITMAP
01
02
06
04
04
08
11
12
24
38
D0
88
05
02
ENDCHAR
STARTCHAR 006C
ENCODING 108
SWIDTH 166 0
DWIDTH 4 0
BBX 8 16 0 -1
BITMAP
03
05
0A
0A
14
14
28
28
50
60
60
C0
80
80
C0
C0
ENDCHAR
STARTCHAR 006D
ENCODING 109
SWIDTH 458 0
DWIDTH 11 0
BBX 10 8 -1 1
BITMAP
2000
2200
2E00
52C0
6540
C680
8480
80C0
ENDCHAR
STARTCHAR 006E
ENCODING 110
SWIDTH 291 0
DWIDTH 7 0
BBX 6 7 0 1
BITMAP
2C
38
D8
F0
50
98
80
ENDCHAR
STARTCHAR 006F
ENCODING 111
SWIDTH 208 0
DWIDTH 5 0
BBX 6 8 -1 0
BITMAP
1C
24
54
64
48
50
90
E0
ENDCHAR
STARTCHAR 0070
ENCODING 112
SWIDTH 291 0
DWIDTH 7 0
BBX 10 15 -4 -8
BITMAP
0240
03C0
0640
0C80
0980
1300
2600
1C00
2000
4000
4000
4000
8000
8000
8000
ENDCHAR
STARTCHAR 0071
ENCODING 113
SWIDTH 291 0
DWIDTH 7 0
BBX 9 16 -2 -9
BITMAP
0380
0680
0900
1700
2A00
5200
A400
C400
0800
0800
0800
1000
1000
1000
1400
0800
ENDCHAR
STARTCHAR 0072
ENCODING 114
SWIDTH 250 0
DWIDTH 6 0
BBX 6 9 -1 0
BITMAP
20
20
2C
34
64
60
40
80
80
ENDCHAR
STARTCHAR 0073
ENCODING 115
SWIDTH 208 0
DWIDTH 5 0
BBX 6 8 -1 -1
BITMAP
1C
30
20
20
20
20
30
C0
ENDCHAR
STARTCHAR 0074
ENCODING 116
SWIDTH 250 0
DWIDTH 6 0
BBX 8 13 -1 -2
BITMAP
01
02
04
08
08
3C
D0
20
20
40
40
40
60
ENDCHAR
STARTCHAR 0075
ENCODING 117
SWIDTH 291 0
DWIDTH 7 0
BBX 6 7 -1 0
BITMAP
10
34
24
58
68
AC
CC
ENDCHAR
STARTCHAR 0076
ENCODING 118
SWIDTH 208 0
DWIDTH 5 0
BBX 6 9 0 0
BITMAP
44
48
50
50
60
C0
40
80
80
ENDCHAR
STARTCHAR 0077
ENCODING 119
SWIDTH 416 0
DWIDTH 10 0
BBX 11 8 0 0
BITMAP
2080
6080
4880
79A0
6A40
CA00
8C00
8000
ENDCHAR
STARTCHAR 0078
ENCODING 120
SWIDTH 250 0
DWIDTH 6 0
BBX 8 9 -2 -1
BITMAP
11
16
08
10
30
50
48
88
80
ENDCHAR
STARTCHAR 0079
ENCODING 121
SWIDTH 291 0
DWIDTH 7 0
BBX 12 16 -6 -9
BITMAP
0080
0190
02F0
01D0
01A0
0120
0220
0040
0040
0080
0080
0100
0200
8600
8C00
7000
ENDCHAR
STARTCHAR 007A
ENCODING 122
SWIDTH 291 0
DWIDTH 7 0
BBX 8 8 -2 -1
BITMAP
0F
02
04
08
10
20
7E
80
ENDCHAR
STARTCHAR 007B
ENCODING 123
SWIDTH 416 0
DWIDTH 10 0
BBX 10 21 1 -4
BITMAP
01C0
0300
0600
0400
0400
0400
0400
0800
0800
3000
E000
3000
1000
1000
1000
1000
1000
1000
1000
1000
0800
ENDCHAR
STARTCHAR 007C
ENCODING 124
SWIDTH 250 0
DWIDTH 6 0
BBX 3 20 2 -4
BITMAP
20
20
20
20
20
20
20
20
20
40
40
40
40
40
40
40
40
80
80
80
ENDCHAR
STARTCHAR 007D
ENCODING 125
SWIDTH 416 0
DWIDTH 10 0
BBX 9 21 1 -4
BITMAP
0C00
0200
0200
0200
0200
0400
0400
0400
0400
0600
0380
0400
0800
1000
1000
1000
2000
2000
2000
4000
8000
ENDCHAR
STARTCHAR 007E
ENCODING 126
SWIDTH 375 0
DWIDTH 9 0
BBX 4 2 5 10
BITMAP
C0
30
ENDCHAR
STARTCHAR 00A0
ENCODING 160
SWIDTH 333 0
DWIDTH 8 0
BBX 0 0 0 0
BITMAP
ENDCHAR
STARTCHAR 00A1
ENCODING 161
SWIDTH 208 0
DWIDTH 5 0
BBX 6 17 -1 -7
BITMAP
04
08
00
00
20
20
40
40
40
40
80
80
80
80
80
80
80
ENDCHAR
STARTCHAR 00A2
ENCODING 162
SWIDTH 500 0
DWIDTH 12 0
BBX 11 13 1 -3
BITMAP
0020
00C0
0380
0E80
1400
2800
5000
D000
A200
CC00
B000
C000
8000
ENDCHAR
STARTCHAR 00A3
ENCODING 163
SWIDTH 791 0
DWIDTH 19 0
BBX 18 17 0 -1
BITMAP
000380
000680
000C80
000800
001000
001000
002000
002000
01FC00
004000
008000
008000
010000
020000
FA0000
87C040
783F80
ENDCHAR
STARTCHAR 00A4
ENCODING 164
SWIDTH 625 0
DWIDTH 15 0
BBX 14 12 0 -1
BITMAP
007C
01C0
0200
0400
0800
7FC0
FF80
4000
4010
4060
6180
3E00
ENDCHAR
STARTCHAR 00A5
ENCODING 165
SWIDTH 416 0
DWIDTH 10 0
BBX 11 14 1 0
BITMAP
2000
3060
1080
1100
1200
1400
1800
FC00
2000
FC00
4000
4000
4000
C000
ENDCHAR
STARTCHAR 00A7
ENCODING 167
SWIDTH 500 0
DWIDTH 12 0
BBX 11 15 2 -1
BITMAP
03C0
0E20
1820
3040
2080
6000
6000
5000
4800
4400
2200
1200
0C00
1800
F800
ENDCHAR
STARTCHAR 00A8
ENCODING 168
SWIDTH 333 0
DWIDTH 8 0
BBX 4 2 3 9
BITMAP
50
A0
ENDCHAR
STARTCHAR 00A9
ENCODING 169
SWIDTH 625 0
DWIDTH 15 0
BBX 13 12 1 0
BITMAP
03E0
0DD0
1228
2408
4808
5008
A010
A090
A320
9C40
6180
3E00
ENDCHAR
STARTCHAR 00AA
ENCODING 170
SWIDTH 291 0
DWIDTH 7 0
BBX 7 8 0 5
BITMAP
06
0C
1C
28
78
48
10
E0
ENDCHAR
STARTCHAR 00AB
ENCODING 171
SWIDTH 375 0
DWIDTH 9 0
BBX 9 7 0 1
BITMAP
0880
1100
2200
4400
CC00
6600
2200
ENDCHAR
STARTCHAR 00AC
ENCODING 172
SWIDTH 458 0
DWIDTH 11 0
BBX 8 4 2 1
BITMAP
FF
01
01
01
ENDCHAR
STARTCHAR 00AE
ENCODING 174
SWIDTH 625 0
DWIDTH 15 0
BBX 13 12 1 0
BITMAP
03E0
0FD0
1928
2228
44C8
4B88
8A10
9210
9120
C0C0
6180
3E00
ENDCHAR
STARTCHAR 00AF
ENCODING 175
SWIDTH 333 0
DWIDTH 8 0
BBX 6 1 2 9
BITMAP
FC
ENDCHAR
STARTCHAR 00B0
ENCODING 176
SWIDTH 250 0
DWIDTH 6 0
BBX 4 5 1 8
BITMAP
60
90
90
90
60
ENDCHAR
STARTCHAR 00B1
ENCODING 177
SWIDTH 458 0
DWIDTH 11 0
BBX 9 8 1 1
BITMAP
0800
0800
0800
FF80
0800
0800
0800
7F00
ENDCHAR
STARTCHAR 00B4
ENCODING 180
SWIDTH 333 0
DWIDTH 8 0
BBX 4 3 4 9
BITMAP
10
60
80
ENDCHAR
STARTCHAR 00B5
ENCODING 181
SWIDTH 500 0
DWIDTH 12 0
BBX 13 16 -1 -5
BITMAP
0820
1820
1020
1060
1060
3040
3040
30C0
30C8
3148
6E70
6000
4000
4000
4000
C000
ENDCHAR
STARTCHAR 00B6
ENCODING 182
SWIDTH 541 0
DWIDTH 13 0
BBX 13 17 2 -3
BITMAP
03F8
0FA0
3F40
3F40
3E80
3E80
1D00
0500
0900
0A00
0A00
1400
1400
2000
2000
4000
8000
ENDCHAR
STARTCHAR 00B7
ENCODING 183
SWIDTH 166 0
DWIDTH 4 0
BBX 2 2 1 3
BITMAP
40
80
ENDCHAR
STARTCHAR 00B8
ENCODING 184
SWIDTH 333 0
DWIDTH 8 0
BBX 3 5 0 -5
BITMAP
40
60
20
20
C0
ENDCHAR
STARTCHAR 00BA
ENCODING 186
SWIDTH 250 0
DWIDTH 6 0
BBX 4 7 1 5
BITMAP
30
50
50
90
A0
A0
C0
ENDCHAR
STARTCHAR 00BB
ENCODING 187
SWIDTH 375 0
DWIDTH 9 0
BBX 8 7 0 1
BITMAP
24
36
1B
12
24
48
90
ENDCHAR
STARTCHAR 00BF
ENCODING 191
SWIDTH 625 0
DWIDTH 15 0
BBX 17 18 -3 -8
BITMAP
000080
000100
000000
000000
000200
000400
000800
003000
01C000
060000
180000
600000
C00700
807900
800200
400400
203800
1FC000
ENDCHAR
STARTCHAR 00C0
ENCODING 192
SWIDTH 875 0
DWIDTH 21 0
BBX 26 23 -3 -3
BITMAP
00001000
00000C00
00000200
00000000
0000FE00
000703C0
001800C0
00100080
00100280
000C0500
00000900
00001200
00001200
001FF400
01E02E00
07004800
1C008800
30010800
60061000
C0081000
80301000
80C00C00
7F000000
ENDCHAR
STARTCHAR 00C1
ENCODING 193
SWIDTH 875 0
DWIDTH 21 0
BBX 25 23 -3 -3
BITMAP
00000100
00000600
00000800
00000000
0001FC00
00060380
00180080
00100080
00100300
000C0500
00000A00
00001200
00001400
001FF400
01E04A00
06008800
18010800
30021000
60041000
C0081000
80301000
81C00800
7E000000
ENDCHAR
STARTCHAR 00C2
ENCODING 194
SWIDTH 875 0
DWIDTH 21 0
BBX 26 23 -3 -3
BITMAP
00000400
00001A00
00002180
00000000
0001FC00
000603C0
00180080
00100080
00100300
000C0500
00000A00
00001200
00001200
001FF400
01E04E00
06008800
18010800
30021000
60041000
C0081000
80301000
81C00800
7E000000
ENDCHAR
STARTCHAR 00C3
ENCODING 195
SWIDTH 875 0
DWIDTH 21 0
BBX 26 22 -3 -3
BITMAP
00001880
00002700
00000000
0001FC00
000603C0
00180080
00100080
00100100
000C0700
00000A00
00001200
00001200
001FF400
01E04E00
06008800
18010800
30021000
60041000
C0081000
80301000
81C00800
7E000000
ENDCHAR
STARTCHAR 00C4
ENCODING 196
SWIDTH 875 0
DWIDTH 21 0
BBX 26 22 -3 -3
BITMAP
00000900
00001200
00000000
0001FC00
000603C0
001800C0
00100080
00100300
000C0500
00000A00
00001200
00001200
001FF400
01E04E00
06004800
18008800
30031000
60041000
C0081000
80301000
81C00800
7E000000
ENDCHAR
STARTCHAR 00C5
ENCODING 197
SWIDTH 875 0
DWIDTH 21 0
BBX 27 23 -3 -3
BITMAP
00000060
000000A0
000000A0
000000A0
000000C0
0001FC00
000603C0
00180080
00100280
00100500
000C0A00
00001200
00001400
001FF400
01E04A00
06008800
18010800
30021000
60041000
C0081000
80301800
81C00000
7E000000
ENDCHAR
STARTCHAR 00C6
ENCODING 198
SWIDTH 791 0
DWIDTH 19 0
BBX 24 15 -3 -3
BITMAP
0007FD
001882
006100
008200
010400
020FC0
1FF000
082000
102000
104000
204020
4041C0
403E00
800000
800000
ENDCHAR
STARTCHAR 00C7
ENCODING 199
SWIDTH 833 0
DWIDTH 20 0
BBX 19 23 1 -7
BITMAP
001F00
1F6380
71B0C0
C60E60
8801A0
900060
600000
380000
200000
400000
400000
400000
400080
400100
400200
200C00
303000
0FC000
040000
040000
020000
020000
0C0000
ENDCHAR
STARTCHAR 00C8
ENCODING 200
SWIDTH 916 0
DWIDTH 22 0
BBX 22 23 1 -3
BITMAP
000800
000600
000100
1F0000
60E000
403800
800700
8001E0
80033C
800600
800400
400800
401800
20FF80
232000
102000
084000
004000
FC8000
030000
82E000
7C1E08
0001F0
ENDCHAR
STARTCHAR 00C9
ENCODING 201
SWIDTH 916 0
DWIDTH 22 0
BBX 22 23 1 -3
BITMAP
000080
000300
000400
1F0000
60E000
403800
800700
8001E0
80023C
800400
800800
400800
401000
20FF00
232000
102000
084000
004000
FC8000
030000
82E000
7C1E08
0001F0
ENDCHAR
STARTCHAR 00CA
ENCODING 202
SWIDTH 916 0
DWIDTH 22 0
BBX 22 23 1 -3
BITMAP
000200
000D00
0010C0
1F0000
60E000
403800
800700
8001E0
80063C
800400
800800
401000
401000
20FF00
232080
102000
084000
004000
FC8000
030000
82E000
7C1E08
0001F0
ENDCHAR
STARTCHAR 00CB
ENCODING 203
SWIDTH 916 0
DWIDTH 22 0
BBX 22 22 1 -3
BITMAP
000480
000900
1F0000
60E000
403800
800700
8001E0
80023C
800400
800800
400800
401000
20FF00
232080
102000
084000
004000
FC8000
030000
82E000
7C1E08
0001F0
ENDCHAR
STARTCHAR 00CC
ENCODING 204
SWIDTH 666 0
DWIDTH 16 0
BBX 20 22 -2 -2
BITMAP
000200
000180
000040
000000
0003F0
007C60
018040
020040
040080
040080
040080
040100
020100
027FC0
078200
188400
600800
800800
801000
806000
C18000
7E0000
ENDCHAR
STARTCHAR 00CD
ENCODING 205
SWIDTH 666 0
DWIDTH 16 0
BBX 19 22 -2 -2
BITMAP
000020
0000C0
000100
000000
0007E0
007840
018080
020080
040080
040100
040100
040200
040200
027F80
078400
380800
400800
801000
802000
804000
C18000
7E0000
ENDCHAR
STARTCHAR 00CE
ENCODING 206
SWIDTH 666 0
DWIDTH 16 0
BBX 20 22 -2 -2
BITMAP
000080
000340
000430
000000
0007F0
007840
018040
020040
040080
040080
040100
040100
040200
027FC0
078400
188400
600800
801000
802000
804000
C18000
7E0000
ENDCHAR
STARTCHAR 00CF
ENCODING 207
SWIDTH 666 0
DWIDTH 16 0
BBX 20 21 -2 -2
BITMAP
000120
000240
000000
0007F0
007840
018040
020080
040080
040080
040100
040100
040200
027FC0
078400
188400
600800
801000
802000
804000
C18000
7E0000
ENDCHAR
STARTCHAR 00D1
ENCODING 209
SWIDTH 791 0
DWIDTH 19 0
BBX 20 25 1 -5
BITMAP
0E1F00
112000
210000
408070
C08090
808110
808230
808420
808840
809040
80A080
414180
218100
010200
030200
050400
0A0400
120800
140800
241000
481000
701200
001200
001200
000C00
ENDCHAR
STARTCHAR 00D2
ENCODING 210
SWIDTH 791 0
DWIDTH 19 0
BBX 18 24 1 -3
BITMAP
004000
003000
000800
000000
00FE00
030300
0C0180
1000C0
200040
418040
420040
840040
880040
900080
900080
A00100
600100
600200
200400
300400
280800
363000
19C000
0FA000
ENDCHAR
STARTCHAR 00D3
ENCODING 211
SWIDTH 791 0
DWIDTH 19 0
BBX 18 24 1 -3
BITMAP
000200
000C00
001000
000000
00FE00
030300
0C0180
1000C0
200040
418040
420040
840040
880040
900080
900080
A00100
600100
600200
200400
300400
280800
363000
19C000
0FA000
ENDCHAR
STARTCHAR 00D4
ENCODING 212
SWIDTH 791 0
DWIDTH 19 0
BBX 18 24 1 -3
BITMAP
000800
003400
004300
000000
00FE00
030300
0C0180
1000C0
200040
418040
420040
840040
880040
900080
900080
A00100
600100
600200
200200
300400
280800
363000
19E000
0FA000
ENDCHAR
STARTCHAR 00D5
ENCODING 213
SWIDTH 791 0
DWIDTH 19 0
BBX 18 22 1 -3
BITMAP
003100
004E00
00FE00
030300
0C0180
1000C0
200040
418040
420040
840040
880040
900080
900080
A00100
600100
600200
200200
300400
280800
363000
19E000
0FB000
ENDCHAR
STARTCHAR 00D6
ENCODING 214
SWIDTH 791 0
DWIDTH 19 0
BBX 18 23 1 -3
BITMAP
001200
002400
000000
00FE00
030300
0C0180
1000C0
200040
418040
420040
840040
880040
900080
900080
A00100
600100
600200
200400
300400
280800
363000
19C000
0FA000
ENDCHAR
STARTCHAR 00D8
ENCODING 216
SWIDTH 625 0
DWIDTH 15 0
BBX 18 20 -2 -6
BITMAP
000040
000180
00FE00
03C600
058900
0A1100
042100
0C4300
188600
110600
320C00
241800
286000
29C000
2E0000
300000
400000
400000
800000
800000
ENDCHAR
STARTCHAR 00D9
ENCODING 217
SWIDTH 875 0
DWIDTH 21 0
BBX 21 24 1 -5
BITMAP
000180
0000C0
000020
07F000
381E00
C00400
800408
800810
601030
001060
002060
0020A0
0040C0
004140
004240
008280
008480
008880
009080
00E080
000090
000090
000050
000020
ENDCHAR
STARTCHAR 00DA
ENCODING 218
SWIDTH 875 0
DWIDTH 21 0
BBX 21 24 1 -5
BITMAP
000018
000030
000040
07F000
381E00
C00400
800408
800808
601010
001030
002020
002060
0040A0
004140
004140
008240
008480
008880
009080
00E080
000090
000090
000050
000060
ENDCHAR
STARTCHAR 00DB
ENCODING 219
SWIDTH 875 0
DWIDTH 21 0
BBX 21 24 1 -5
BITMAP
000040
0001A0
000218
0FE000
301C00
C00400
800808
800810
601030
001020
002060
0020A0
0040C0
004140
004240
0084C0
008480
008880
009080
00E090
000090
000090
000060
000060
ENDCHAR
STARTCHAR 00DC
ENCODING 220
SWIDTH 875 0
DWIDTH 21 0
BBX 21 23 1 -5
BITMAP
000090
000120
07F000
381E00
C00400
800408
800808
601010
001030
002020
0020E0
0040E0
004140
004240
0084C0
008480
008880
009080
00E090
000090
000090
0000A0
000060
ENDCHAR
STARTCHAR 00DF
ENCODING 223
SWIDTH 291 0
DWIDTH 7 0
BBX 16 20 -7 -5
BITMAP
000E
0019
0031
0021
0041
0042
008C
0098
0090
0110
0110
0108
0208
0218
0260
0400
0400
8800
9800
6000
ENDCHAR
STARTCHAR 00E0
ENCODING 224
SWIDTH 333 0
DWIDTH 8 0
BBX 9 12 -2 0
BITMAP
0400
0300
0080
0000
0000
0380
0F80
1600
2E00
5400
A600
C400
ENDCHAR
STARTCHAR 00E1
ENCODING 225
SWIDTH 333 0
DWIDTH 8 0
BBX 11 12 -2 0
BITMAP
0020
00C0
0100
0000
0000
0380
0F80
1600
2E00
5C00
A600
C400
ENDCHAR
STARTCHAR 00E2
ENCODING 226
SWIDTH 333 0
DWIDTH 8 0
BBX 11 12 -2 0
BITMAP
0100
0680
0860
0000
0000
0380
0F80
1600
2A00
5400
A600
C400
ENDCHAR
STARTCHAR 00E3
ENCODING 227
SWIDTH 333 0
DWIDTH 8 0
BBX 11 11 -2 0
BITMAP
0600
0920
00C0
0000
0380
0F80
1600
2A00
5400
A600
C400
ENDCHAR
STARTCHAR 00E4
ENCODING 228
SWIDTH 333 0
DWIDTH 8 0
BBX 10 11 -2 0
BITMAP
0240
0480
0000
0000
0380
0F80
1600
2A00
5400
A600
C400
ENDCHAR
STARTCHAR 00E5
ENCODING 229
SWIDTH 333 0
DWIDTH 8 0
BBX 10 12 -2 0
BITMAP
01C0
0340
0240
0380
0000
03C0
0740
1E00
2A00
5400
A600
C400
ENDCHAR
STARTCHAR 00E6
ENCODING 230
SWIDTH 416 0
DWIDTH 10 0
BBX 12 8 -2 -1
BITMAP
03F0
0CD0
1960
37F0
6A60
5280
A300
C000
ENDCHAR
STARTCHAR 00E7
ENCODING 231
SWIDTH 208 0
DWIDTH 5 0
BBX 6 12 -1 -5
BITMAP
0C
14
20
40
88
B0
C0
80
80
40
00
80
ENDCHAR
STARTCHAR 00E8
ENCODING 232
SWIDTH 250 0
DWIDTH 6 0
BBX 6 12 -1 0
BITMAP
20
18
04
00
0C
14
2C
58
EC
88
90
E0
ENDCHAR
STARTCHAR 00E9
ENCODING 233
SWIDTH 250 0
DWIDTH 6 0
BBX 8 12 -1 0
BITMAP
01
06
08
00
0C
14
2C
58
EC
88
90
E0
ENDCHAR
STARTCHAR 00EA
ENCODING 234
SWIDTH 250 0
DWIDTH 6 0
BBX 9 12 -1 0
BITMAP
0400
1A00
2180
0000
0C00
1400
2C00
5800
EC00
8800
9000
E000
ENDCHAR
STARTCHAR 00EB
ENCODING 235
SWIDTH 250 0
DWIDTH 6 0
BBX 8 11 -1 0
BITMAP
09
12
00
0C
14
2C
58
EC
88
90
E0
ENDCHAR
STARTCHAR 00EC
ENCODING 236
SWIDTH 125 0
DWIDTH 3 0
BBX 6 12 -1 0
BITMAP
20
18
04
00
00
10
20
40
40
80
A0
C0
ENDCHAR
STARTCHAR 00ED
ENCODING 237
SWIDTH 125 0
DWIDTH 3 0
BBX 7 12 -1 0
BITMAP
02
0C
10
00
00
10
20
40
40
80
A0
C0
ENDCHAR
STARTCHAR 00EE
ENCODING 238
SWIDTH 125 0
DWIDTH 3 0
BBX 8 12 -1 0
BITMAP
08
34
43
00
00
10
20
40
40
80
A0
C0
ENDCHAR
STARTCHAR 00EF
ENCODING 239
SWIDTH 125 0
DWIDTH 3 0
BBX 7 11 -1 0
BITMAP
12
24
00
00
10
20
40
40
80
A0
C0
ENDCHAR
STARTCHAR 00F1
ENCODING 241
SWIDTH 291 0
DWIDTH 7 0
BBX 9 11 0 0
BITMAP
1800
2480
0300
0000
2600
2C00
DC00
F800
6800
CC00
8000
ENDCHAR
STARTCHAR 00F2
ENCODING 242
SWIDTH 208 0
DWIDTH 5 0
BBX 6 12 -1 0
BITMAP
20
18
04
00
1C
24
54
64
48
50
90
E0
ENDCHAR
STARTCHAR 00F3
ENCODING 243
SWIDTH 208 0
DWIDTH 5 0
BBX 8 12 -1 0
BITMAP
01
06
08
00
1C
24
54
64
48
50
90
E0
ENDCHAR
STARTCHAR 00F4
ENCODING 244
SWIDTH 208 0
DWIDTH 5 0
BBX 8 12 -1 0
BITMAP
08
34
43
00
1C
24
54
64
48
50
90
E0
ENDCHAR
STARTCHAR 00F5
ENCODING 245
SWIDTH 208 0
DWIDTH 5 0
BBX 7 11 -1 0
BITMAP
30
48
06
1C
24
54
64
48
50
90
E0
ENDCHAR
STARTCHAR 00F6
ENCODING 246
SWIDTH 208 0
DWIDTH 5 0
BBX 7 11 -1 0
BITMAP
12
24
00
1C
24
54
64
48
50
90
E0
ENDCHAR
STARTCHAR 00F7
ENCODING 247
SWIDTH 458 0
DWIDTH 11 0
BBX 7 7 2 1
BITMAP
08
10
00
FE
00
10
20
ENDCHAR
STARTCHAR 00F8
ENCODING 248
SWIDTH 208 0
DWIDTH 5 0
BBX 8 13 -1 -2
BITMAP
01
02
02
1C
2C
74
6C
78
68
D0
A0
C0
80
ENDCHAR
STARTCHAR 00F9
ENCODING 249
SWIDTH 291 0
DWIDTH 7 0
BBX 7 12 -1 0
BITMAP
10
0C
02
00
00
10
34
24
58
68
EC
8C
ENDCHAR
STARTCHAR 00FA
ENCODING 250
SWIDTH 291 0
DWIDTH 7 0
BBX 9 12 -1 0
BITMAP
0080
0300
0400
0000
0000
1000
3400
2400
4800
5800
AC00
CC00
ENDCHAR
STARTCHAR 00FB
ENCODING 251
SWIDTH 291 0
DWIDTH 7 0
BBX 10 12 -1 0
BITMAP
0200
0D00
10C0
0000
0000
1000
3400
2400
4800
5800
AC00
CC00
ENDCHAR
STARTCHAR 00FC
ENCODING 252
SWIDTH 291 0
DWIDTH 7 0
BBX 8 11 -1 0
BITMAP
05
0A
00
00
10
34
24
48
58
AC
CC
ENDCHAR
STARTCHAR 00FF
ENCODING 255
SWIDTH 291 0
DWIDTH 7 0
BBX 13 20 -6 -9
BITMAP
0048
0090
0000
0000
0080
0190
02F0
01D0
01A0
0120
0220
0040
0040
0080
0080
0100
0200
8600
8C00
7000
ENDCHAR
STARTCHAR 0131
ENCODING 305
SWIDTH 125 0
DWIDTH 3 0
BBX 4 7 -1 0
BITMAP
10
20
40
40
80
A0
C0
ENDCHAR
STARTCHAR 0152
ENCODING 338
SWIDTH 958 0
DWIDTH 23 0
BBX 25 13 0 0
BITMAP
01F0FF80
0F08C000
16058000
28050000
10060000
2005E000
40080000
40100000
80200000
80601000
81A0E000
861F0000
78000000
ENDCHAR
STARTCHAR 0153
ENCODING 339
SWIDTH 416 0
DWIDTH 10 0
BBX 10 8 -1 0
BITMAP
1800
24C0
4540
6780
4F40
4980
9A00
EC00
ENDCHAR
STARTCHAR 0178
ENCODING 376
SWIDTH 875 0
DWIDTH 21 0
BBX 27 30 -4 -12
BITMAP
00000480
00000900
003F8000
01C07000
06001000
04002000
04004100
02004100
00008300
00010500
00010600
00020A00
00021200
00041400
00042400
00084400
00088800
00090800
000E0800
07FFD020
3800F020
40001FC0
80001000
80002000
80004000
80008000
C0010000
60020000
381C0000
0FE00000
ENDCHAR
STARTCHAR 0192
ENCODING 402
SWIDTH 458 0
DWIDTH 11 0
BBX 16 20 -4 -6
BITMAP
000E
0011
0021
0021
0040
0040
01F0
0080
0080
0080
0100
0100
0100
0200
0200
0200
0400
8400
8800
7000
ENDCHAR
STARTCHAR 02C6
ENCODING 710
SWIDTH 333 0
DWIDTH 8 0
BBX 7 3 2 9
BITMAP
10
68
86
ENDCHAR
STARTCHAR 02C7
ENCODING 711
SWIDTH 333 0
DWIDTH 8 0
BBX 6 3 2 9
BITMAP
84
48
30
ENDCHAR
STARTCHAR 02C9
ENCODING 713
SWIDTH 333 0
DWIDTH 8 0
BBX 6 1 2 9
BITMAP
FC
ENDCHAR
STARTCHAR 02D8
ENCODING 728
SWIDTH 333 0
DWIDTH 8 0
BBX 5 2 3 9
BITMAP
88
70
ENDCHAR
STARTCHAR 02D9
ENCODING 729
SWIDTH 333 0
DWIDTH 8 0
BBX 2 2 4 9
BITMAP
40
80
ENDCHAR
STARTCHAR 02DA
ENCODING 730
SWIDTH 333 0
DWIDTH 8 0
BBX 3 4 4 8
BITMAP
60
A0
A0
C0
ENDCHAR
STARTCHAR 02DB
ENCODING 731
SWIDTH 333 0
DWIDTH 8 0
BBX 3 3 1 -2
BITMAP
80
80
E0
ENDCHAR
STARTCHAR 02DC
ENCODING 732
SWIDTH 333 0
DWIDTH 8 0
BBX 6 3 3 8
BITMAP
80
64
18
ENDCHAR
STARTCHAR 02DD
ENCODING 733
SWIDTH 333 0
DWIDTH 8 0
BBX 5 3 4 9
BITMAP
28
50
A0
ENDCHAR
STARTCHAR 0394
ENCODING 916
SWIDTH 500 0
DWIDTH 12 0
BBX 12 17 0 1
BITMAP
0400
0600
0600
0A00
0B00
0900
1100
1180
1080
2080
20C0
2040
4040
4060
4020
8020
FFF0
ENDCHAR
STARTCHAR 03A9
ENCODING 937
SWIDTH 750 0
DWIDTH 18 0
BBX 18 18 0 0
BITMAP
03F000
040800
080400
100200
300300
200100
200100
200100
200100
200100
200100
100200
100200
100400
880440
840880
440880
7E1F80
ENDCHAR
STARTCHAR 03BC
ENCODING 956
SWIDTH 500 0
DWIDTH 12 0
BBX 13 16 -1 -5
BITMAP
0820
1820
1020
1060
1060
3040
3040
30C0
30C8
3148
6E70
6000
4000
4000
4000
C000
ENDCHAR
STARTCHAR 03C0
ENCODING 960
SWIDTH 625 0
DWIDTH 15 0
BBX 15 10 0 0
BITMAP
3FFE
4420
8420
8440
0840
0840
0840
18C0
18C0
1880
ENDCHAR
STARTCHAR 2013
ENCODING 8211
SWIDTH 500 0
DWIDTH 12 0
BBX 10 1 1 3
BITMAP
FFC0
ENDCHAR
STARTCHAR 2014
ENCODING 8212
SWIDTH 750 0
DWIDTH 18 0
BBX 18 1 0 3
BITMAP
FFFFC0
ENDCHAR
STARTCHAR 2018
ENCODING 8216
SWIDTH 125 0
DWIDTH 3 0
BBX 1 4 3 13
BITMAP
80
80
80
80
ENDCHAR
STARTCHAR 2019
ENCODING 8217
SWIDTH 125 0
DWIDTH 3 0
BBX 2 4 3 11
BITMAP
40
40
40
80
ENDCHAR
STARTCHAR 201A
ENCODING 8218
SWIDTH 125 0
DWIDTH 3 0
BBX 2 4 -2 -3
BITMAP
40
40
40
80
ENDCHAR
STARTCHAR 201C
ENCODING 8220
SWIDTH 208 0
DWIDTH 5 0
BBX 3 4 3 13
BITMAP
60
A0
A0
A0
ENDCHAR
STARTCHAR 201D
ENCODING 8221
SWIDTH 208 0
DWIDTH 5 0
BBX 4 4 3 11
BITMAP
50
50
90
A0
ENDCHAR
STARTCHAR 201E
ENCODING 8222
SWIDTH 208 0
DWIDTH 5 0
BBX 4 4 -2 -3
BITMAP
50
50
90
A0
ENDCHAR
STARTCHAR 2020
ENCODING 8224
SWIDTH 458 0
DWIDTH 11 0
BBX 10 21 1 -7
BITMAP
0040
0080
0100
0100
0200
0580
1E00
2800
0800
1000
1000
2000
2000
4000
4000
4000
8000
8000
8000
8000
8000
ENDCHAR
STARTCHAR 2021
ENCODING 8225
SWIDTH 458 0
DWIDTH 11 0
BBX 10 20 1 -6
BITMAP
0040
0080
0100
0100
0200
0200
1D00
2800
3E00
5000
2000
2000
4000
4000
4000
8000
8000
8000
8000
8000
ENDCHAR
STARTCHAR 2022
ENCODING 8226
SWIDTH 583 0
DWIDTH 14 0
BBX 7 7 4 5
BITMAP
38
7C
FE
FE
FE
7C
38
ENDCHAR
STARTCHAR 2026
ENCODING 8230
SWIDTH 458 0
DWIDTH 11 0
BBX 9 2 0 0
BITMAP
4880
9100
ENDCHAR
STARTCHAR 2030
ENCODING 8240
SWIDTH 791 0
DWIDTH 19 0
BBX 20 21 -2 -4
BITMAP
003F00
0040C0
0040C0
014180
024200
048400
048800
091000
0A2000
0C4000
008000
011C70
0234D0
046590
0828A0
104920
109240
20B280
40C300
400000
800000
ENDCHAR
STARTCHAR 2039
ENCODING 8249
SWIDTH 250 0
DWIDTH 6 0
BBX 5 7 0 1
BITMAP
08
10
20
40
C0
60
20
ENDCHAR
STARTCHAR 203A
ENCODING 8250
SWIDTH 250 0
DWIDTH 6 0
BBX 5 7 0 1
BITMAP
20
30
18
10
20
40
80
ENDCHAR
STARTCHAR 2122
ENCODING 8482
SWIDTH 666 0
DWIDTH 16 0
BBX 14 9 3 7
BITMAP
FC00
2104
210C
4308
4318
44A8
84C8
8408
8000
ENDCHAR
STARTCHAR 2202
ENCODING 8706
SWIDTH 416 0
DWIDTH 10 0
BBX 8 16 1 -2
BITMAP
1C
22
02
01
01
01
01
01
0D
11
22
42
84
84
98
60
ENDCHAR
STARTCHAR 220F
ENCODING 8719
SWIDTH 750 0
DWIDTH 18 0
BBX 16 22 1 -5
BITMAP
FFFF
2004
2004
2004
2004
2004
2004
2004
2004
2004
2004
2004
2004
2004
2004
2004
2004
2004
2004
2004
2004
F81F
ENDCHAR
STARTCHAR 2211
ENCODING 8721
SWIDTH 666 0
DWIDTH 16 0
BBX 16 22 0 -5
BITMAP
FFF8
6008
3004
1804
0C00
0600
0100
0080
0040
0020
0010
0008
0010
0020
0040
0080
0300
0600
0801
1002
2002
7FFE
ENDCHAR
STARTCHAR 2215
ENCODING 8725
SWIDTH 250 0
DWIDTH 6 0
BBX 18 20 -3 -3
BITMAP
0000C0
000100
000200
000400
000800
001000
002000
004000
008000
010000
020000
040000
080000
100000
200000
200000
400000
800000
800000
800000
ENDCHAR
STARTCHAR 221A
ENCODING 8730
SWIDTH 625 0
DWIDTH 15 0
BBX 14 19 1 0
BITMAP
000C
0010
0010
0020
0020
0020
0040
0040
E080
6080
2080
3100
1100
1A00
1A00
0A00
0C00
0C00
0400
ENDCHAR
STARTCHAR 221E
ENCODING 8734
SWIDTH 833 0
DWIDTH 20 0
BBX 14 8 3 3
BITMAP
3870
4588
8304
8204
8204
8304
4488
3870
ENDCHAR
STARTCHAR 222B
ENCODING 8747
SWIDTH 458 0
DWIDTH 11 0
BBX 10 22 1 -4
BITMAP
01C0
02C0
0400
0400
0400
0C00
0C00
0C00
0C00
0C00
0C00
0C00
0C00
0C00
0C00
0C00
0C00
0800
0800
0800
D000
E000
ENDCHAR
STARTCHAR 2248
ENCODING 8776
SWIDTH 458 0
DWIDTH 11 0
BBX 6 4 2 3
BITMAP
E0
1C
E0
1C
ENDCHAR
STARTCHAR 2260
ENCODING 8800
SWIDTH 458 0
DWIDTH 11 0
BBX 7 7 2 1
BITMAP
04
08
FE
10
FE
20
40
ENDCHAR
STARTCHAR 2264
ENCODING 8804
SWIDTH 458 0
DWIDTH 11 0
BBX 7 7 2 1
BITMAP
40
38
10
20
40
00
FE
ENDCHAR
STARTCHAR 2265
ENCODING 8805
SWIDTH 458 0
DWIDTH 11 0
BBX 7 7 2 1
BITMAP
08
30
40
60
18
00
FE
ENDCHAR
STARTCHAR 25CA
ENCODING 9674
SWIDTH 500 0
DWIDTH 12 0
BBX 12 23 0 -5
BITMAP
0600
0600
0F00
0900
1980
1080
3080
2040
6040
4060
4020
8030
4020
4060
6040
2040
3080
1080
1900
0900
0F00
0600
0600
ENDCHAR
STARTCHAR F8FF
ENCODING 63743
SWIDTH 791 0
DWIDTH 19 0
BBX 16 19 1 0
BITMAP
0018
0038
0070
0060
0E7C
3FFF
7FFF
7FFE
FFFC
FFFC
FFFC
FFFC
7FFE
7FFF
7FFF
3FFF
3FFE
1FFE
0F38
ENDCHAR
STARTCHAR FB01
ENCODING 64257
SWIDTH 333 0
DWIDTH 8 0
BBX 21 28 -8 -9
BITMAP
000070
0000C8
000108
000208
000600
000400
000800
000800
001000
001000
002000
002080
002100
004200
01F400
004400
008800
008E00
010C00
010000
010000
020000
020000
040000
040000
880000
980000
600000
ENDCHAR
STARTCHAR FB02
ENCODING 64258
SWIDTH 375 0
DWIDTH 9 0
BBX 22 28 -8 -9
BITMAP
000070
0000C8
000108
000208
00060C
000434
000828
000848
001090
0011A0
001140
002340
002280
004700
00F600
004400
008800
008800
008C00
010C00
010000
020000
020000
020000
040000
880000
980000
700000
ENDCHAR
ENDFONT
